<svg width="26" height="24" viewBox="0 0 26 24" fill="none" xmlns="http://www.w3.org/2000/svg">
<path d="M16.9219 1.95312C17.6719 1.20312 18.5781 1.29688 19.6406 2.23438C19.9531 2.42188 20.1094 2.65625 20.1094 2.9375C21.2344 7.0625 22.4531 11.125 23.7656 15.125C25.0781 19.0938 25.7344 21.5312 25.7344 22.4375C25.7344 23.3125 25.25 23.75 24.2812 23.75C23.3438 23.75 22.7188 23.4062 22.4062 22.7188C22.3438 22.5938 22.2812 22.3906 22.2188 22.1094C22.1562 21.8281 21.6719 20.3438 20.7656 17.6562C19.5156 13.9375 18.5156 10.1406 17.7656 6.26562C16.5469 7.70312 15 9.70312 13.125 12.2656C11.2812 14.8281 9.98438 16.5312 9.23438 17.375L8.4375 18.2656C5.59375 21.4219 3.84375 23.1094 3.1875 23.3281C3.03125 23.3594 2.57812 23.3594 1.82812 23.3281C1.10938 23.2969 0.703125 22.9844 0.609375 22.3906C0.640625 22.2344 0.75 22.0625 0.9375 21.875C7 13.875 11.0938 8.65625 13.2188 6.21875L16.7812 2.14062L16.9219 2V1.95312Z" fill="white"/>
</svg>
