<svg width="169" height="169" viewBox="0 0 169 169" fill="none" xmlns="http://www.w3.org/2000/svg">
<circle cx="84.5" cy="84.5" r="83" stroke="#FAF4E8" stroke-width="3"/>
<path d="M85.5 70.9994C85.4997 70.171 84.8279 69.4997 83.9994 69.5C83.171 69.5003 82.4997 70.1721 82.5 71.0006L85.5 70.9994ZM82.9615 130.061C83.5475 130.646 84.4972 130.646 85.0828 130.06L94.6252 120.51C95.2107 119.924 95.2104 118.975 94.6244 118.389C94.0384 117.803 93.0886 117.804 92.503 118.39L84.0209 126.878L75.5325 118.396C74.9465 117.811 73.9967 117.811 73.4112 118.397C72.8256 118.983 72.8259 119.933 73.4119 120.518L82.9615 130.061ZM82.5 71.0006L82.5217 129L85.5217 128.999L85.5 70.9994L82.5 71.0006Z" fill="#FAF4E8"/>
</svg>
