<svg width="117" height="116" viewBox="0 0 117 116" fill="none" xmlns="http://www.w3.org/2000/svg">
<path d="M47.9775 103.792L45.4766 112.153L42.5534 111.279C41.9709 111.105 41.5207 110.861 41.2026 110.546C40.8837 110.234 40.6822 109.882 40.5981 109.489C40.5131 109.099 40.5317 108.7 40.6538 108.291C40.7613 107.932 40.914 107.654 41.1119 107.459C41.3071 107.262 41.5285 107.127 41.7761 107.052C42.0209 106.977 42.2729 106.943 42.5319 106.949L42.5563 106.868C42.3054 106.775 42.075 106.608 41.8653 106.367C41.6556 106.127 41.5092 105.828 41.4262 105.471C41.3432 105.114 41.3676 104.715 41.4995 104.274C41.6249 103.855 41.8329 103.507 42.1236 103.229C42.4142 102.951 42.7944 102.776 43.264 102.703C43.7336 102.63 44.2977 102.692 44.9564 102.889L47.9775 103.792ZM46.6964 104.388L44.6877 103.787C44.0263 103.589 43.5186 103.576 43.1644 103.749C42.8067 103.924 42.5729 104.195 42.463 104.562C42.3784 104.845 42.3723 105.128 42.4449 105.411C42.5167 105.696 42.6644 105.951 42.888 106.175C43.1108 106.402 43.4045 106.57 43.7692 106.679L45.8269 107.294L46.6964 104.388ZM45.5631 108.176L43.6851 107.615C43.3803 107.523 43.0875 107.501 42.8067 107.547C42.5232 107.593 42.2767 107.703 42.0674 107.878C41.8553 108.052 41.7052 108.286 41.6173 108.579C41.5074 108.947 41.5421 109.297 41.7214 109.629C41.8999 109.964 42.2668 110.215 42.8221 110.381L44.7327 110.952L45.5631 108.176Z" fill="#CC5736"/>
<path d="M36.2181 99.3252L31.5663 106.709L27.1098 103.902L27.6095 103.109L31.1718 105.353L32.7436 102.858L29.412 100.759L29.9118 99.9658L33.2433 102.065L34.8242 99.5551L31.2042 97.2746L31.7039 96.4814L36.2181 99.3252Z" fill="#CC5736"/>
<path d="M20.4248 85.2331L12.9807 89.7883L11.3881 87.1858C11.0708 86.6672 10.8988 86.1846 10.872 85.7381C10.8427 85.293 10.928 84.8961 11.1276 84.5475C11.3248 84.2003 11.6052 83.9155 11.9687 83.6931C12.2885 83.4974 12.5875 83.3927 12.8656 83.3791C13.1422 83.363 13.3974 83.41 13.6313 83.52C13.8637 83.6276 14.0742 83.7702 14.2628 83.9479L14.3355 83.9034C14.2107 83.6667 14.1505 83.3888 14.155 83.0696C14.1596 82.7504 14.2501 82.4303 14.4266 82.1091C14.6031 81.788 14.8876 81.5073 15.2802 81.267C15.6533 81.0387 16.0409 80.9181 16.4427 80.9054C16.8446 80.8926 17.2447 81.0158 17.6431 81.2749C18.0414 81.5341 18.42 81.9569 18.7789 82.5433L20.4248 85.2331ZM19.0736 84.821L17.9792 83.0326C17.6189 82.4438 17.2492 82.0955 16.8702 81.9877C16.4873 81.879 16.1322 81.9247 15.8051 82.1249C15.5531 82.2791 15.3597 82.4856 15.2251 82.7446C15.088 83.005 15.0279 83.2932 15.0448 83.6093C15.0593 83.9268 15.1658 84.2479 15.3645 84.5727L16.4856 86.4046L19.0736 84.821ZM15.7004 86.885L14.6773 85.213C14.5112 84.9416 14.3081 84.7295 14.0681 84.5767C13.8265 84.4214 13.5695 84.3389 13.297 84.329C13.0231 84.3168 12.7553 84.3908 12.4936 84.5509C12.1665 84.7511 11.9587 85.0348 11.8703 85.4019C11.7795 85.7706 11.8853 86.2021 12.1878 86.6964L13.2287 88.3975L15.7004 86.885Z" fill="#CC5736"/>
<path d="M8.50066 68.0915C9.39095 67.8578 10.2025 67.8166 10.9354 67.9678C11.6683 68.1191 12.2842 68.4288 12.7831 68.897C13.2819 69.3652 13.6259 69.9593 13.8149 70.6792C14.0039 71.3991 13.9961 72.0855 13.7915 72.7384C13.587 73.3913 13.2027 73.9636 12.6386 74.4554C12.0745 74.9471 11.3473 75.3098 10.457 75.5435C9.56675 75.7773 8.75517 75.8185 8.02229 75.6673C7.2894 75.516 6.67352 75.2063 6.17465 74.7381C5.67577 74.2699 5.33183 73.6758 5.14283 72.9559C4.95383 72.2359 4.96161 71.5495 5.16616 70.8967C5.37072 70.2438 5.75504 69.6715 6.31912 69.1797C6.8832 68.688 7.61038 68.3252 8.50066 68.0915ZM8.76036 69.0807C8.02945 69.2726 7.44467 69.5568 7.00602 69.9334C6.56666 70.3072 6.27229 70.7355 6.12293 71.2182C5.97284 71.6982 5.96488 72.1937 6.09906 72.7048C6.23324 73.2159 6.48393 73.645 6.85116 73.9921C7.21765 74.3365 7.68443 74.5649 8.25148 74.6775C8.81781 74.7873 9.46643 74.7462 10.1973 74.5543C10.9283 74.3625 11.5134 74.0796 11.9528 73.7058C12.3914 73.3292 12.6858 72.9009 12.8359 72.421C12.9852 71.9382 12.9928 71.4413 12.8586 70.9302C12.7245 70.4192 12.4741 69.9914 12.1076 69.6471C11.7404 69.3 11.2736 69.0715 10.7073 68.9617C10.1403 68.8492 9.49127 68.8888 8.76036 69.0807Z" fill="#CC5736"/>
<path d="M12.0228 59.7877L3.29834 59.5676L3.325 58.5111L11.1123 58.7076L11.2146 54.6521L12.1518 54.6757L12.0228 59.7877Z" fill="#CC5736"/>
<path d="M13.8775 45.6706L13.09 48.2461L4.74413 45.6942L5.56653 43.0046C5.81408 42.195 6.19299 41.5533 6.70326 41.0795C7.21082 40.6049 7.8226 40.3093 8.5386 40.1925C9.25189 40.0749 10.0405 40.1482 10.9044 40.4124C11.7738 40.6782 12.4749 41.0619 13.0078 41.5635C13.5379 42.0643 13.8809 42.6623 14.0366 43.3575C14.1897 44.052 14.1367 44.823 13.8775 45.6706ZM12.5025 46.9613L12.961 45.4617C13.172 44.7716 13.2138 44.1591 13.0862 43.624C12.9587 43.0888 12.6832 42.6347 12.2596 42.2616C11.8359 41.8885 11.2845 41.5981 10.6054 41.3904C9.93161 41.1844 9.31794 41.117 8.76436 41.1884C8.20806 41.2589 7.73263 41.473 7.33808 41.8307C6.94081 42.1875 6.64249 42.6919 6.44312 43.3439L5.94968 44.9577L12.5025 46.9613Z" fill="#CC5736"/>
<path d="M23.0039 28.4596L16.7184 22.4051L18.8351 20.2076C19.2569 19.7697 19.6804 19.4815 20.1058 19.343C20.5291 19.2024 20.9346 19.1848 21.3224 19.2901C21.7081 19.3933 22.0544 19.5928 22.3613 19.8884C22.6313 20.1486 22.8081 20.4115 22.8914 20.6772C22.9767 20.9408 22.9956 21.1996 22.9481 21.4536C22.9026 21.7056 22.8177 21.9453 22.6933 22.1727L22.7547 22.2318C22.9523 22.0513 23.206 21.923 23.516 21.8469C23.826 21.7707 24.1587 21.7776 24.514 21.8674C24.8693 21.9572 25.2126 22.1617 25.5441 22.481C25.8592 22.7845 26.0736 23.1291 26.1873 23.5147C26.301 23.9004 26.2827 24.3186 26.1324 24.7695C25.9822 25.2203 25.6685 25.6933 25.1916 26.1885L23.0039 28.4596ZM23.0619 27.0481L24.5164 25.5381C24.9953 25.0409 25.2391 24.5953 25.2478 24.2013C25.2564 23.8034 25.1226 23.4713 24.8464 23.2053C24.6336 23.0003 24.385 22.8653 24.1005 22.8003C23.8139 22.7334 23.5198 22.7479 23.2183 22.844C22.9146 22.9381 22.6308 23.1222 22.3667 23.3964L20.8767 24.9432L23.0619 27.0481ZM20.2137 24.3046L21.5736 22.8928C21.7944 22.6637 21.9484 22.4137 22.0358 22.1428C22.1251 21.8699 22.1402 21.6004 22.0809 21.3343C22.0237 21.0661 21.8846 20.8256 21.6636 20.6127C21.3874 20.3467 21.0605 20.2172 20.6829 20.2242C20.3032 20.2293 19.9124 20.4406 19.5103 20.858L18.1268 22.2943L20.2137 24.3046Z" fill="#CC5736"/>
<path d="M32.3632 20.0545L27.9317 12.536L32.4693 9.86153L32.9453 10.6692L29.3182 12.807L30.8156 15.3474L34.2077 13.3481L34.6837 14.1557L31.2916 16.1551L32.7976 18.7102L36.4834 16.5377L36.9594 17.3454L32.3632 20.0545Z" fill="#CC5736"/>
<path d="M52.1258 12.475L51.4884 3.77103L54.5314 3.54819C55.1378 3.50378 55.6455 3.57199 56.0547 3.75282C56.4637 3.93081 56.7774 4.18842 56.9958 4.52564C57.2139 4.86003 57.3386 5.23972 57.3697 5.66472C57.3971 6.03872 57.3531 6.35243 57.2378 6.60585C57.1253 6.85906 56.9666 7.06438 56.7617 7.22181C56.5595 7.37904 56.3363 7.50079 56.0919 7.58704L56.0982 7.67204C56.3657 7.66954 56.6403 7.74343 56.9219 7.89372C57.2036 8.04401 57.4467 8.27118 57.6512 8.57523C57.8558 8.87928 57.9749 9.26081 58.0085 9.71981C58.0405 10.1561 57.97 10.5558 57.7972 10.9188C57.6244 11.2819 57.3316 11.581 56.9187 11.8164C56.5058 12.0517 55.9565 12.1945 55.2708 12.2447L52.1258 12.475ZM53.1114 11.4628L55.2024 11.3097C55.8909 11.2593 56.3699 11.0903 56.6393 10.8028C56.9115 10.5123 57.0335 10.1758 57.0055 9.79326C56.9839 9.49859 56.8889 9.23209 56.7205 8.99376C56.5519 8.75259 56.3232 8.56709 56.0346 8.43726C55.7457 8.30459 55.4114 8.25216 55.0318 8.27996L52.8898 8.43682L53.1114 11.4628ZM52.8225 7.51883L54.7775 7.37566C55.0949 7.35242 55.3765 7.26913 55.6223 7.12579C55.871 6.98224 56.0622 6.79164 56.1957 6.55398C56.3321 6.31611 56.3891 6.04417 56.3667 5.73817C56.3387 5.35567 56.1818 5.04101 55.896 4.79418C55.6099 4.54452 55.1779 4.44085 54.5999 4.48318L52.6109 4.62884L52.8225 7.51883Z" fill="#CC5736"/>
<path d="M64.7052 12.466L66.4255 3.91L69.3165 4.49127C69.9849 4.62567 70.5106 4.85018 70.8936 5.16481C71.2772 5.47664 71.5323 5.85103 71.6588 6.28796C71.7854 6.7249 71.798 7.19542 71.6967 7.69954C71.5953 8.20365 71.4024 8.62995 71.1179 8.97844C70.8334 9.32692 70.4557 9.56973 69.9847 9.70686C69.5144 9.84121 68.9478 9.84175 68.2849 9.70847L65.9453 9.23807L66.1335 8.30226L68.4396 8.76593C68.8964 8.85777 69.2775 8.86485 69.5829 8.78716C69.891 8.71003 70.1324 8.56152 70.3071 8.34162C70.485 8.1195 70.6084 7.83716 70.6773 7.49458C70.7462 7.152 70.7423 6.83972 70.6657 6.55772C70.5891 6.27573 70.4242 6.03682 70.1709 5.841C69.9181 5.6424 69.5606 5.49662 69.0983 5.40366L67.2768 5.03742L65.7413 12.6744L64.7052 12.466ZM69.5053 9.43226L70.8381 13.6991L69.6349 13.4572L68.3355 9.19706L69.5053 9.43226Z" fill="#CC5736"/>
<path d="M77.1448 15.9597L76.1623 15.4477L83.0372 9.18904L84.0046 9.69316L82.8134 18.9136L81.8309 18.4015L82.9131 10.6813L82.8526 10.6498L77.1448 15.9597ZM79.083 13.1255L83.0435 15.1893L82.6102 16.0206L78.6498 13.9569L79.083 13.1255Z" fill="#CC5736"/>
<path d="M94.7109 16.907L91.437 23.9758L91.5102 24.0472L98.4941 20.596L99.2874 21.3695L90.9002 25.3808L90.1192 24.6192L93.9176 16.1335L94.7109 16.907Z" fill="#CC5736"/>
<path d="M97.3353 33.0696L104.926 28.7631L107.525 33.3443L106.71 33.8069L104.632 30.1449L102.067 31.6L104.01 35.0248L103.195 35.4874L101.252 32.0626L98.6722 33.5262L100.783 37.2474L99.968 37.71L97.3353 33.0696Z" fill="#CC5736"/>
<path d="M104.587 52.9551L113.3 52.4618L113.473 55.5081C113.507 56.115 113.43 56.6216 113.243 57.0277C113.058 57.4337 112.795 57.7431 112.454 57.9559C112.117 58.1685 111.735 58.2869 111.309 58.311C110.935 58.3322 110.622 58.283 110.371 58.1635C110.119 58.0468 109.917 57.8847 109.763 57.6772C109.609 57.4725 109.491 57.2473 109.408 57.0015L109.323 57.0064C109.321 57.2739 109.243 57.5473 109.088 57.8264C108.933 58.1055 108.702 58.3448 108.395 58.5443C108.087 58.7438 107.704 58.8565 107.244 58.8826C106.807 58.9073 106.409 58.8303 106.049 58.6515C105.689 58.4727 105.394 58.1749 105.166 57.7582C104.938 57.3414 104.804 56.7899 104.765 56.1035L104.587 52.9551ZM105.582 53.9573L105.701 56.0505C105.74 56.7397 105.901 57.2215 106.184 57.4957C106.47 57.7726 106.804 57.9002 107.187 57.8785C107.482 57.8618 107.75 57.7712 107.992 57.6067C108.235 57.4421 108.425 57.2166 108.559 56.9301C108.697 56.6435 108.755 56.3101 108.733 55.93L108.612 53.7857L105.582 53.9573ZM109.531 53.7337L109.642 55.6908C109.66 56.0085 109.738 56.2914 109.877 56.5396C110.017 56.7907 110.204 56.9849 110.44 57.1224C110.675 57.2627 110.946 57.3242 111.252 57.3069C111.635 57.2852 111.953 57.1335 112.204 56.8518C112.459 56.5699 112.569 56.1397 112.537 55.5611L112.424 53.5699L109.531 53.7337Z" fill="#CC5736"/>
<path d="M104.388 65.5328L112.914 67.3944L111.791 72.5403L110.875 72.3403L111.773 68.227L108.892 67.5979L108.052 71.4448L107.136 71.2448L107.976 67.398L105.078 66.7653L104.166 70.9452L103.25 70.7452L104.388 65.5328Z" fill="#CC5736"/>
<path d="M103.795 90.0428L103.039 90.9881L98.346 90.3345L98.2822 90.4144L99.9525 94.8489L99.1968 95.7942L97.1587 90.1272L94.3496 87.8813L95.0095 87.0558L97.8186 89.3018L103.795 90.0428Z" fill="#CC5736"/>
<path d="M84.449 102.224C83.9263 101.466 83.6113 100.717 83.5042 99.9767C83.397 99.2361 83.4787 98.5516 83.7492 97.9232C84.0198 97.2947 84.4613 96.7692 85.074 96.3465C85.6866 95.9238 86.3347 95.6976 87.0183 95.6677C87.7018 95.6379 88.3707 95.8046 89.0251 96.1677C89.6794 96.5308 90.2679 97.0912 90.7906 97.8488C91.3133 98.6064 91.6283 99.3555 91.7354 100.096C91.8426 100.837 91.7609 101.521 91.4904 102.15C91.2198 102.778 90.7783 103.304 90.1656 103.726C89.5529 104.149 88.9049 104.375 88.2213 104.405C87.5378 104.435 86.8689 104.268 86.2145 103.905C85.5602 103.542 84.9717 102.982 84.449 102.224ZM85.2908 101.643C85.7199 102.265 86.1862 102.718 86.6895 103.003C87.1905 103.289 87.6934 103.42 88.1982 103.396C88.7006 103.374 89.1692 103.213 89.6042 102.913C90.0391 102.613 90.3573 102.231 90.5587 101.767C90.7578 101.306 90.8138 100.789 90.7267 100.217C90.6373 99.6475 90.378 99.0516 89.9488 98.4296C89.5197 97.8076 89.0546 97.3536 88.5536 97.0676C88.0502 96.7833 87.5474 96.6522 87.045 96.6744C86.5402 96.6982 86.0704 96.8602 85.6354 97.1602C85.2005 97.4603 84.8835 97.8413 84.6844 98.3031C84.4829 98.7665 84.4269 99.2831 84.5164 99.853C84.6035 100.425 84.8616 101.021 85.2908 101.643Z" fill="#CC5736"/>
<path d="M72.6093 111.819L71.6 112.133L69.8864 106.614C69.7095 106.045 69.6858 105.494 69.8154 104.963C69.9431 104.436 70.2098 103.968 70.6154 103.559C71.0218 103.153 71.552 102.849 72.2058 102.646C72.8597 102.443 73.469 102.393 74.0339 102.498C74.5996 102.604 75.0858 102.839 75.4926 103.2C75.8975 103.565 76.1884 104.033 76.3653 104.603L78.0789 110.121L77.0696 110.434L75.3813 104.997C75.2549 104.59 75.0529 104.256 74.7753 103.994C74.4985 103.735 74.1664 103.566 73.7789 103.487C73.3896 103.412 72.963 103.446 72.499 103.59C72.0351 103.734 71.6641 103.947 71.3859 104.23C71.1087 104.515 70.9307 104.843 70.8521 105.212C70.7716 105.585 70.7946 105.975 70.9209 106.382L72.6093 111.819Z" fill="#CC5736"/>
</svg>
