<svg width="66" height="91" viewBox="0 0 66 91" fill="none" xmlns="http://www.w3.org/2000/svg">
<path d="M34.4474 0.999456C34.447 0.447171 33.999 -0.000300431 33.4468 1.78814e-07C32.8945 0.000300789 32.447 0.44826 32.4474 1.00054L34.4474 0.999456ZM32.7642 38.707C33.1549 39.0973 33.7881 39.097 34.1784 38.7062L40.5383 32.3388C40.9286 31.9481 40.9282 31.3149 40.5374 30.9246C40.1466 30.5343 39.5135 30.5346 39.1232 30.9254L33.4699 36.5853L27.8095 30.9315C27.4187 30.5412 26.7856 30.5416 26.3953 30.9323C26.005 31.323 26.0054 31.9562 26.3962 32.3465L32.7642 38.707ZM32.4474 1.00054L32.4708 38.0001L34.4708 37.999L34.4474 0.999456L32.4474 1.00054Z" fill="#E04015"/>
<path d="M8.07955 61H7.02273C6.96023 60.696 6.85085 60.429 6.6946 60.1989C6.54119 59.9688 6.35369 59.7756 6.1321 59.6193C5.91335 59.4602 5.67045 59.3409 5.40341 59.2614C5.13636 59.1818 4.85795 59.142 4.56818 59.142C4.03977 59.142 3.56108 59.2756 3.1321 59.5426C2.70597 59.8097 2.36648 60.2031 2.11364 60.723C1.86364 61.2429 1.73864 61.8807 1.73864 62.6364C1.73864 63.392 1.86364 64.0298 2.11364 64.5497C2.36648 65.0696 2.70597 65.4631 3.1321 65.7301C3.56108 65.9972 4.03977 66.1307 4.56818 66.1307C4.85795 66.1307 5.13636 66.0909 5.40341 66.0114C5.67045 65.9318 5.91335 65.8139 6.1321 65.6577C6.35369 65.4986 6.54119 65.304 6.6946 65.0739C6.85085 64.8409 6.96023 64.5739 7.02273 64.2727H8.07955C8 64.7187 7.85511 65.1179 7.64489 65.4702C7.43466 65.8224 7.1733 66.1222 6.8608 66.3693C6.5483 66.6136 6.19744 66.7997 5.80824 66.9276C5.42188 67.0554 5.00852 67.1193 4.56818 67.1193C3.82386 67.1193 3.16193 66.9375 2.58239 66.5739C2.00284 66.2102 1.54688 65.6932 1.21449 65.0227C0.882102 64.3523 0.715909 63.5568 0.715909 62.6364C0.715909 61.7159 0.882102 60.9205 1.21449 60.25C1.54688 59.5795 2.00284 59.0625 2.58239 58.6989C3.16193 58.3352 3.82386 58.1534 4.56818 58.1534C5.00852 58.1534 5.42188 58.2173 5.80824 58.3452C6.19744 58.473 6.5483 58.6605 6.8608 58.9077C7.1733 59.152 7.43466 59.4503 7.64489 59.8026C7.85511 60.152 8 60.5511 8.07955 61ZM17.1509 62.6364C17.1509 63.5568 16.9847 64.3523 16.6523 65.0227C16.32 65.6932 15.864 66.2102 15.2844 66.5739C14.7049 66.9375 14.043 67.1193 13.2987 67.1193C12.5543 67.1193 11.8924 66.9375 11.3129 66.5739C10.7333 66.2102 10.2773 65.6932 9.94496 65.0227C9.61257 64.3523 9.44638 63.5568 9.44638 62.6364C9.44638 61.7159 9.61257 60.9205 9.94496 60.25C10.2773 59.5795 10.7333 59.0625 11.3129 58.6989C11.8924 58.3352 12.5543 58.1534 13.2987 58.1534C14.043 58.1534 14.7049 58.3352 15.2844 58.6989C15.864 59.0625 16.32 59.5795 16.6523 60.25C16.9847 60.9205 17.1509 61.7159 17.1509 62.6364ZM16.1282 62.6364C16.1282 61.8807 16.0018 61.2429 15.7489 60.723C15.4989 60.2031 15.1594 59.8097 14.7305 59.5426C14.3043 59.2756 13.8271 59.142 13.2987 59.142C12.7702 59.142 12.2915 59.2756 11.8626 59.5426C11.4364 59.8097 11.0969 60.2031 10.8441 60.723C10.5941 61.2429 10.4691 61.8807 10.4691 62.6364C10.4691 63.392 10.5941 64.0298 10.8441 64.5497C11.0969 65.0696 11.4364 65.4631 11.8626 65.7301C12.2915 65.9972 12.7702 66.1307 13.2987 66.1307C13.8271 66.1307 14.3043 65.9972 14.7305 65.7301C15.1594 65.4631 15.4989 65.0696 15.7489 64.5497C16.0018 64.0298 16.1282 63.392 16.1282 62.6364ZM25.8484 58.2727V67H24.8256L20.07 60.1477H19.9847V67H18.9279V58.2727H19.9506L24.7234 65.142H24.8086V58.2727H25.8484ZM27.4858 59.2102V58.2727H34.0312V59.2102H31.2869V67H30.2301V59.2102H27.4858ZM35.0007 67H33.8928L37.0973 58.2727H38.1882L41.3928 67H40.2848L37.6768 59.6534H37.6087L35.0007 67ZM35.4098 63.5909H39.8757V64.5284H35.4098V63.5909ZM49.3647 61H48.3079C48.2454 60.696 48.136 60.429 47.9798 60.1989C47.8263 59.9688 47.6388 59.7756 47.4173 59.6193C47.1985 59.4602 46.9556 59.3409 46.6886 59.2614C46.4215 59.1818 46.1431 59.142 45.8533 59.142C45.3249 59.142 44.8462 59.2756 44.4173 59.5426C43.9911 59.8097 43.6516 60.2031 43.3988 60.723C43.1488 61.2429 43.0238 61.8807 43.0238 62.6364C43.0238 63.392 43.1488 64.0298 43.3988 64.5497C43.6516 65.0696 43.9911 65.4631 44.4173 65.7301C44.8462 65.9972 45.3249 66.1307 45.8533 66.1307C46.1431 66.1307 46.4215 66.0909 46.6886 66.0114C46.9556 65.9318 47.1985 65.8139 47.4173 65.6577C47.6388 65.4986 47.8263 65.304 47.9798 65.0739C48.136 64.8409 48.2454 64.5739 48.3079 64.2727H49.3647C49.2852 64.7187 49.1403 65.1179 48.93 65.4702C48.7198 65.8224 48.4585 66.1222 48.146 66.3693C47.8335 66.6136 47.4826 66.7997 47.0934 66.9276C46.707 67.0554 46.2937 67.1193 45.8533 67.1193C45.109 67.1193 44.4471 66.9375 43.8675 66.5739C43.288 66.2102 42.832 65.6932 42.4996 65.0227C42.1673 64.3523 42.0011 63.5568 42.0011 62.6364C42.0011 61.7159 42.1673 60.9205 42.4996 60.25C42.832 59.5795 43.288 59.0625 43.8675 58.6989C44.4471 58.3352 45.109 58.1534 45.8533 58.1534C46.2937 58.1534 46.707 58.2173 47.0934 58.3452C47.4826 58.473 47.8335 58.6605 48.146 58.9077C48.4585 59.152 48.7198 59.4503 48.93 59.8026C49.1403 60.152 49.2852 60.5511 49.3647 61ZM50.5952 59.2102V58.2727H57.1406V59.2102H54.3963V67H53.3395V59.2102H50.5952ZM63.5444 60.4545C63.4933 60.0227 63.2859 59.6875 62.9222 59.4489C62.5586 59.2102 62.1126 59.0909 61.5842 59.0909C61.1978 59.0909 60.8597 59.1534 60.57 59.2784C60.283 59.4034 60.0586 59.5753 59.8967 59.794C59.7376 60.0128 59.658 60.2614 59.658 60.5398C59.658 60.7727 59.7134 60.973 59.8242 61.1406C59.9379 61.3054 60.0827 61.4432 60.2589 61.554C60.435 61.6619 60.6197 61.7514 60.8129 61.8224C61.006 61.8906 61.1836 61.946 61.3455 61.9886L62.2319 62.2273C62.4592 62.2869 62.712 62.3693 62.9904 62.4744C63.2717 62.5795 63.5401 62.723 63.7958 62.9048C64.0543 63.0838 64.2674 63.3139 64.435 63.5952C64.6026 63.8764 64.6864 64.2216 64.6864 64.6307C64.6864 65.1023 64.5629 65.5284 64.3157 65.9091C64.0714 66.2898 63.7134 66.5923 63.2418 66.8168C62.7731 67.0412 62.2035 67.1534 61.533 67.1534C60.908 67.1534 60.3668 67.0526 59.9094 66.8509C59.4549 66.6491 59.0969 66.3679 58.8356 66.0071C58.5771 65.6463 58.4308 65.2273 58.3967 64.75H59.4876C59.516 65.0795 59.6268 65.3523 59.82 65.5682C60.016 65.7812 60.2631 65.9403 60.5614 66.0455C60.8626 66.1477 61.1864 66.1989 61.533 66.1989C61.9364 66.1989 62.2987 66.1335 62.6197 66.0028C62.9407 65.8693 63.195 65.6847 63.3825 65.4489C63.57 65.2102 63.6637 64.9318 63.6637 64.6136C63.6637 64.3239 63.5827 64.0881 63.4208 63.9062C63.2589 63.7244 63.0458 63.5767 62.7816 63.4631C62.5174 63.3494 62.2319 63.25 61.9251 63.1648L60.8512 62.858C60.1694 62.6619 59.6296 62.3821 59.2319 62.0185C58.8342 61.6548 58.6353 61.179 58.6353 60.5909C58.6353 60.1023 58.7674 59.6761 59.0316 59.3125C59.2987 58.946 59.6566 58.6619 60.1055 58.4602C60.5572 58.2557 61.0614 58.1534 61.6183 58.1534C62.1808 58.1534 62.6808 58.2543 63.1183 58.456C63.5558 58.6548 63.9023 58.9276 64.158 59.2741C64.4165 59.6207 64.5529 60.0142 64.5671 60.4545H63.5444Z" fill="#E04015"/>
</svg>
