<svg width="152" height="142" viewBox="0 0 152 142" fill="none" xmlns="http://www.w3.org/2000/svg">
<path d="M3.05488 41.3216C9.09569 41.2518 14.0673 46.0992 14.1369 52.1284C14.1486 53.1407 14.9782 53.9504 15.9896 53.9387C17.001 53.927 17.8116 53.0984 17.7999 52.086C17.7302 46.0568 22.5787 41.096 28.6069 41.0263C29.6184 41.0146 30.429 40.186 30.4173 39.1737C30.4056 38.1614 29.5761 37.3517 28.5646 37.3634C22.5363 37.433 17.5745 32.5748 17.5046 26.5331C17.4929 25.5207 16.6634 24.7111 15.652 24.7228C14.6406 24.7344 13.83 25.5631 13.8417 26.5754C13.9115 32.6171 9.05337 37.5888 3.01255 37.6586C2.00113 37.6703 1.19055 38.4989 1.20224 39.5112C1.21394 40.5236 2.04345 41.3332 3.05488 41.3216ZM15.7532 33.6369C17.1097 36.0128 19.1108 37.9717 21.5147 39.2748C19.1415 40.6312 17.1862 42.6322 15.8849 45.0353C14.5275 42.663 12.523 40.7077 10.1154 39.4065C12.4923 38.0482 14.4511 36.0435 15.7532 33.6369Z" fill="#E04015"/>
<path d="M148.947 51.7514C142.919 51.821 137.957 46.9628 137.887 40.9211C137.875 39.9087 137.046 39.0991 136.034 39.1108C135.023 39.1224 134.212 39.9511 134.224 40.9634C134.294 47.0051 129.436 51.9768 123.395 52.0466C122.384 52.0583 121.573 52.8869 121.585 53.8992C121.596 54.9116 122.426 55.7212 123.437 55.7096C129.478 55.6398 134.45 60.4872 134.519 66.5164C134.531 67.5287 135.361 68.3384 136.372 68.3267C137.383 68.315 138.194 67.4864 138.182 66.474C138.113 60.4448 142.961 55.484 148.989 55.4143C150.001 55.4026 150.811 54.574 150.8 53.5617C150.788 52.5494 149.958 51.7397 148.947 51.7514ZM136.267 59.4233C134.91 57.051 132.905 55.0957 130.498 53.7945C132.875 52.4362 134.834 50.4315 136.136 48.0249C137.491 50.4008 139.493 52.3597 141.897 53.6628C139.524 55.0193 137.568 57.0202 136.267 59.4233Z" fill="#E04015"/>
<path d="M68.4134 17.3963C74.4542 17.3265 79.4258 22.1757 79.4955 28.2049C79.5072 29.2172 80.3367 30.0269 81.3481 30.0152C82.3595 30.0035 83.1701 29.1749 83.1584 28.1626C83.0887 22.1334 87.9372 17.1707 93.9654 17.1011C94.9769 17.0894 95.7875 16.2608 95.7758 15.2484C95.7641 14.2361 94.9346 13.4264 93.9231 13.4381C87.8948 13.5078 82.933 8.64953 82.8632 2.6096C82.8515 1.59729 82.022 0.787608 81.0105 0.799294C79.9991 0.81098 79.1885 1.63961 79.2002 2.65193C79.27 8.69185 74.4119 13.6636 68.3711 13.7334C67.3596 13.745 66.549 14.5737 66.5607 15.586C66.5724 16.5983 67.402 17.408 68.4134 17.3963ZM81.1117 9.71343C82.4674 12.0894 84.4693 14.0482 86.8732 15.3495C84.5 16.706 82.5438 18.707 81.2434 21.1118C79.886 18.7377 77.8815 16.7825 75.4739 15.4812C77.8508 14.1247 79.8096 12.1201 81.1117 9.71343Z" fill="#E04015"/>
<path d="M148.605 103.947L100.553 72.9942C91.6175 68.1694 81.8234 70.9961 75.0155 80.1493C68.0034 71.1612 58.1494 68.5632 49.2268 73.6606L2.02262 105.64C1.35349 106.093 1.05998 106.932 1.30233 107.704C1.54379 108.476 2.26264 108.997 3.07107 108.988L3.25942 108.985L28.4256 126.198C42.6824 135.964 58.7304 140.761 74.7361 140.576C89.7787 140.402 104.785 135.827 118.221 126.838L147.414 107.32L147.634 107.317C148.442 107.308 149.149 106.77 149.373 105.993C149.597 105.216 149.284 104.384 148.605 103.947ZM116.184 123.792C89.7234 141.496 56.8892 141.254 30.4952 123.176L9.6395 108.912L37.8866 108.585C49.2314 115.498 61.8753 119.082 74.4745 118.936C87.0764 118.791 99.6341 114.916 110.812 107.743L140.706 107.397L116.184 123.792ZM42.9877 107.276C45.9169 105.215 53.5106 100.278 59.1885 100.213C61.6594 100.184 65.3061 102.221 69.1934 105.8C70.8685 107.344 73.0551 108.179 75.3525 108.152C77.649 108.126 79.8166 107.24 81.4547 105.658C85.26 101.99 88.8587 99.8699 91.3287 99.8414C96.484 99.7818 103.305 103.697 106.748 105.912C96.6843 111.892 85.575 115.145 74.4322 115.273C63.6858 115.398 52.896 112.628 42.9877 107.276ZM110.607 104.082C108.292 102.456 98.7446 96.0922 91.2864 96.1784C86.8723 96.2294 82.121 99.9281 78.9119 103.022C76.9837 104.883 73.6462 104.922 71.6755 103.106C68.3966 100.087 63.5612 96.4988 59.1462 96.5498C51.6889 96.6359 42.2915 103.218 40.0132 104.897L9.12143 105.254L51.1615 76.7668C58.9557 72.3229 67.5218 75.2273 73.5221 84.3505C74.2085 85.3908 75.9434 85.3708 76.6056 84.3149C82.3988 75.0482 90.9089 71.9447 98.6903 76.1443L141.497 103.725L110.607 104.082Z" fill="#E04015"/>
<path d="M83.2986 129.005C83.4557 129.903 84.2402 130.531 85.1219 130.521C85.2194 130.52 85.3195 130.512 85.4194 130.494C95.1959 128.777 104.519 124.986 113.131 119.225C113.971 118.662 114.197 117.524 113.634 116.683C113.072 115.843 111.934 115.62 111.094 116.179C102.908 121.656 94.0569 125.259 84.7856 126.885C83.7895 127.061 83.1234 128.009 83.2986 129.005Z" fill="#E04015"/>
<path d="M75.5502 127.82L74.5702 127.838C73.5588 127.85 72.7482 128.678 72.7599 129.691C72.7716 130.703 73.6011 131.513 74.6125 131.501L75.6516 131.482C76.6628 131.454 77.4598 130.611 77.4321 129.601C77.4043 128.589 76.5563 127.804 75.5502 127.82Z" fill="#E04015"/>
</svg>
