<svg width="313" height="313" viewBox="0 0 313 313" fill="none" xmlns="http://www.w3.org/2000/svg">
<path d="M131.199 297.25C133.133 297.554 134.873 297.347 136.421 296.63C137.958 295.911 139.193 294.812 140.125 293.333C141.057 291.854 141.685 290.085 142.009 288.024C142.251 286.484 142.287 285.049 142.117 283.717C141.945 282.397 141.564 281.198 140.974 280.121C140.382 279.055 139.538 278.163 138.441 277.445C137.33 276.737 136.005 276.262 134.465 276.02C132.486 275.708 130.356 275.901 128.075 276.599L127.973 273.967C129.869 273.15 132.287 272.972 135.227 273.435C137.161 273.739 138.847 274.33 140.287 275.209C141.713 276.097 142.838 277.205 143.661 278.533C144.471 279.87 145.009 281.39 145.275 283.092C145.54 284.807 145.516 286.659 145.203 288.65C144.9 290.572 144.338 292.299 143.516 293.83C142.694 295.362 141.677 296.626 140.465 297.621C139.239 298.627 137.8 299.332 136.147 299.736C134.494 300.141 132.718 300.194 130.819 299.895C127.937 299.442 125.606 298.423 123.826 296.839L125.392 294.576C127.11 296.02 129.046 296.912 131.199 297.25Z" fill="#E04015"/>
<path d="M108.265 265.7L104.069 276.573C103.373 278.377 103.156 279.801 103.419 280.844C103.671 281.884 104.513 282.68 105.946 283.233C107.323 283.764 108.62 283.869 109.837 283.547C111.043 283.222 111.999 282.567 112.706 281.583C113.12 280.801 113.522 279.907 113.91 278.901L117.612 269.308L120.351 270.365L110.712 295.341L107.91 294.448L110.733 287.134C110.974 286.511 111.293 285.748 111.691 284.847C109.415 286.154 107.004 286.316 104.456 285.333C100.444 283.785 99.3472 280.655 101.166 275.943L105.526 264.644L108.265 265.7Z" fill="#E04015"/>
<path d="M85.6672 275.592L95.3257 258.902L97.8817 260.381L88.2232 277.071L85.6672 275.592ZM82.1543 281.663L83.8975 278.65L86.4535 280.129L84.7103 283.142L82.1543 281.663Z" fill="#E04015"/>
<path d="M80.955 248.327C83.1728 250.094 84.3361 252.198 84.4449 254.637C84.5446 257.069 83.6668 259.449 81.8117 261.777C79.9328 264.116 77.7803 265.51 75.3544 265.959C72.9119 266.41 70.5864 265.755 68.3778 263.995C67.5989 263.374 66.9241 262.679 66.3535 261.91C65.7737 261.133 65.3972 260.421 65.224 259.773L67.2805 258.49C67.8926 259.922 68.7943 261.113 69.9857 262.062C71.4428 263.224 73.0212 263.612 74.7207 263.229C76.411 262.837 77.9902 261.721 79.4583 259.879C80.8898 258.083 81.6085 256.325 81.6145 254.607C81.604 252.89 80.8564 251.44 79.3718 250.257C78.1896 249.315 76.7243 248.671 74.9759 248.327L76.1443 246.269C77.7202 246.341 79.3237 247.027 80.955 248.327Z" fill="#E04015"/>
<path d="M46.2926 233.073C45.8831 234.629 45.4691 235.82 45.0506 236.644C44.6321 237.468 43.9836 238.162 43.1051 238.724C41.6344 239.665 40.138 239.892 38.616 239.405C37.0778 238.915 35.7465 237.791 34.6222 236.034C33.9589 234.998 33.5185 233.951 33.301 232.894C33.0673 231.833 33.1321 230.803 33.4954 229.806C33.8425 228.804 34.5046 227.991 35.4818 227.366C36.1135 226.962 36.7928 226.708 37.5196 226.604C38.2303 226.497 38.9674 226.54 39.731 226.733C40.4882 226.917 41.2326 227.178 41.9642 227.516C42.6895 227.845 43.4649 228.274 44.2904 228.803L46.8427 218.801C45.5082 218.542 43.9542 218.549 42.1807 218.821L42.3963 216.158C44.1304 215.911 45.8664 215.906 47.6043 216.144L49.0874 211.417C49.8312 211.971 50.5837 212.581 51.3449 213.249L50.3534 216.722C53.2932 217.706 55.6284 219.551 57.3592 222.256C58.9573 224.753 59.6304 227 59.3785 228.998C59.1103 230.992 58.004 232.612 56.0595 233.856C54.5493 234.823 53.0093 235.21 51.4395 235.018C49.8634 234.816 48.1478 234.168 46.2926 233.073ZM46.9897 230.478C48.4173 231.317 49.7242 231.837 50.9102 232.038C52.0899 232.229 53.193 231.997 54.2195 231.34C55.4929 230.525 56.1992 229.433 56.3386 228.064C56.4682 226.701 56.015 225.21 54.979 223.591C53.741 221.656 51.9898 220.301 49.7256 219.523C49.4034 220.759 48.9465 222.589 48.355 225.013C47.7572 227.427 47.3021 229.248 46.9897 230.478ZM36.7258 234.625C37.3132 235.543 38.0207 236.127 38.8483 236.377C39.6659 236.632 40.4942 236.492 41.3332 235.955C42.0044 235.525 42.5076 234.953 42.8429 234.238C43.1619 233.519 43.4434 232.545 43.6875 231.318C43.006 230.905 42.4399 230.586 41.989 230.36C41.5318 230.124 41.019 229.909 40.4504 229.716C39.872 229.53 39.3384 229.468 38.8497 229.53C38.3546 229.583 37.88 229.755 37.4259 230.045C36.6067 230.569 36.155 231.255 36.0709 232.102C35.9769 232.955 36.1952 233.796 36.7258 234.625Z" fill="#E04015"/>
<path d="M16.1287 184.822C16.557 186.732 17.3893 188.274 18.6258 189.45C19.8598 190.615 21.3357 191.359 23.0535 191.682C24.7714 192.005 26.648 191.939 28.6834 191.482C30.2042 191.141 31.5525 190.647 32.7283 189.999C33.8926 189.353 34.8672 188.558 35.6522 187.614C36.4257 186.671 36.9447 185.558 37.2091 184.274C37.4595 182.981 37.4142 181.574 37.0731 180.053C36.6346 178.098 35.6719 176.188 34.1849 174.323L36.5947 173.261C38.0517 174.723 39.1058 176.907 39.7572 179.811C40.1855 181.721 40.2557 183.507 39.9678 185.168C39.666 186.821 39.0492 188.275 38.1174 189.529C37.1716 190.774 35.9559 191.833 34.4705 192.706C32.9736 193.583 31.2417 194.241 29.275 194.682C27.3768 195.108 25.5645 195.22 23.8379 195.019C22.1114 194.818 20.5623 194.336 19.1906 193.575C17.8049 192.805 16.6201 191.726 15.6361 190.337C14.6521 188.948 13.9498 187.316 13.5293 185.441C12.8907 182.594 12.9811 180.052 13.8004 177.814L16.4804 178.438C15.769 180.567 15.6517 182.695 16.1287 184.822Z" fill="#E04015"/>
<path d="M37.0358 151.894L25.3819 151.989C23.4483 152.005 22.0447 152.327 21.1709 152.956C20.297 153.572 19.8664 154.648 19.879 156.183C19.8911 157.66 20.2705 158.905 21.0171 159.918C21.7637 160.92 22.7241 161.568 23.8984 161.863C24.7782 161.962 25.7571 162.006 26.8352 161.997L37.118 161.913L37.1421 164.848L10.3715 165.068L10.1717 162.134L18.0112 162.07C18.6792 162.064 19.5055 162.081 20.4903 162.12C18.4377 160.484 17.4002 158.301 17.3778 155.571C17.3425 151.27 19.8501 149.099 24.9007 149.058L37.0117 148.958L37.0358 151.894Z" fill="#E04015"/>
<path d="M36.9742 135.143C37.2405 133.774 37.1006 132.499 36.5543 131.319C35.9988 130.124 35.1117 129.253 33.893 128.706L30.701 128.085C30.6898 128.142 30.6503 128.499 30.5824 129.154C30.5169 129.798 30.4708 130.219 30.4442 130.416C30.1771 132.955 30.2464 134.777 30.6521 135.883C31.06 136.977 31.9254 137.653 33.2482 137.91C34.2605 138.107 35.0836 137.957 35.7176 137.459C36.3517 136.962 36.7705 136.19 36.9742 135.143ZM40.1254 129.256C39.3556 129.285 38.5294 129.297 37.6469 129.293C38.49 130.543 39.0233 131.668 39.2469 132.666C39.4704 133.665 39.4613 134.785 39.2196 136.028C38.8749 137.799 38.1373 139.136 37.0067 140.038C35.8668 140.927 34.4283 141.202 32.6914 140.864C30.7589 140.488 29.4689 139.479 28.8214 137.837C28.1761 136.183 28.007 133.954 28.3141 131.148C28.3535 130.762 28.4182 130.183 28.5085 129.413C28.5894 128.629 28.6495 128.044 28.6889 127.657L27.0152 127.332C25.6808 127.072 24.6312 127.19 23.8661 127.686C23.1011 128.182 22.5888 129.097 22.3291 130.431C21.9666 132.295 22.0607 134.265 22.6117 136.342C22.4625 136.373 22.0365 136.445 21.3338 136.559C20.6197 136.671 20.2499 136.73 20.2247 136.737C19.9165 135.806 19.7362 134.738 19.684 133.534C19.6224 132.316 19.7081 131.109 19.9408 129.913C20.3996 127.555 21.2474 125.959 22.4841 125.125C23.7116 124.277 25.5619 124.094 28.035 124.575L40.5618 127.013L40.1254 129.256Z" fill="#E04015"/>
<path d="M28.4302 102.565C28.6201 102.073 28.826 101.638 29.0478 101.259L31.5351 102.332C31.2534 102.801 31.0409 103.222 30.8973 103.593C30.3064 105.124 30.3608 106.577 31.0606 107.953C31.7538 109.313 32.8875 110.297 34.4617 110.905L44.5629 114.806L43.5054 117.544C32.4599 113.292 26.4615 110.982 25.5104 110.614L26.3906 108.335L29.7223 109.32C28.9463 108.304 28.4324 107.195 28.1808 105.993C27.9291 104.79 28.0123 103.647 28.4302 102.565Z" fill="#E04015"/>
<path d="M63.5811 80.6528L55.2573 75.0441C54.4798 74.5202 53.8156 74.1009 53.2646 73.7861C52.7202 73.4617 52.1333 73.1793 51.5039 72.9389C50.8811 72.6888 50.3389 72.5708 49.8773 72.5847C49.4125 72.5824 48.952 72.7102 48.4957 72.9679C48.0296 73.2192 47.6133 73.6169 47.2466 74.1611C46.5262 75.2302 46.1974 76.3369 46.26 77.4813C46.3292 78.6159 46.7756 79.694 47.5994 80.7153C48.2402 81.2743 48.959 81.8223 49.7559 82.3592L58.4734 88.2331L56.833 90.6676L48.2468 84.8821C47.5276 84.3975 46.8893 84.0027 46.3317 83.6977C45.7645 83.3861 45.1872 83.1314 44.5999 82.9335C44.0028 82.729 43.4702 82.6386 43.0021 82.6623C42.5405 82.6763 42.0897 82.8106 41.6496 83.0652C41.2096 83.3198 40.8128 83.7095 40.4591 84.2343C39.6733 85.4005 39.3084 86.5818 39.3642 87.7781C39.4266 88.9648 39.8569 90.0248 40.6551 90.9583C41.3445 91.55 42.1265 92.1406 43.0012 92.7299L51.5583 98.4958L49.9179 100.93C39.9045 94.2114 34.5674 90.6293 33.9066 90.184L35.2817 88.1431L37.7767 89.3792C37.3655 88.3956 37.2085 87.2865 37.3056 86.0518C37.4027 84.8172 37.8343 83.6314 38.6005 82.4943C38.9999 81.9015 39.4298 81.3999 39.8901 80.9893C40.3472 80.5626 40.7795 80.2462 41.1868 80.0402C41.6006 79.8244 42.0271 79.6738 42.4663 79.5882C42.8958 79.4961 43.286 79.4622 43.6369 79.4867C43.9781 79.5046 44.3175 79.5567 44.6551 79.6429C43.5458 77.1997 43.7999 74.7779 45.4173 72.3775C46.6157 70.599 48.0034 69.6405 49.5805 69.502C51.1543 69.3473 52.9374 69.9411 54.9297 71.2836L65.2215 78.2183L63.5811 80.6528Z" fill="#E04015"/>
<path d="M69.0898 53.3676C67.7647 53.1689 66.543 53.5693 65.4246 54.5689C64.3062 55.5685 63.7485 56.7822 63.7515 58.2098C63.7466 59.6288 64.2961 61.0788 65.3998 62.5599L72.9882 55.7773C71.7152 54.3531 70.4157 53.5499 69.0898 53.3676ZM77.63 67.3538C75.5418 69.2203 73.3013 70.0283 70.9085 69.778C68.5244 69.5198 66.3015 68.2374 64.2398 65.9308C62.2484 63.7028 61.2167 61.3792 61.1449 58.96C61.0652 56.5321 61.9617 54.4577 63.8342 52.7368C65.6166 51.1437 67.5744 50.4941 69.7075 50.788C71.8415 51.0653 73.8183 52.2219 75.6379 54.2576C75.7316 54.3625 75.899 54.5586 76.1402 54.846C76.3901 55.1256 76.5697 55.3266 76.6791 55.4489L66.8103 64.2698C68.2969 65.8802 69.8565 66.781 71.4891 66.9721C73.1226 67.1467 74.6296 66.617 76.01 65.3831C77.5303 64.0243 78.6957 62.2596 79.5063 60.0891L81.4285 61.5538C80.7659 63.7492 79.4998 65.6825 77.63 67.3538Z" fill="#E04015"/>
<path d="M95.0833 51.6138C96.7604 50.6514 97.6963 49.3982 97.8912 47.8541C98.0962 46.3043 97.6241 44.5282 96.475 42.5259C95.1801 40.2695 93.8096 38.7996 92.3636 38.1162C90.9218 37.4168 89.3218 37.5717 87.5634 38.5808C86.7808 39.0299 86.1859 39.5942 85.7787 40.2738C85.3715 40.9533 85.157 41.698 85.1352 42.5076C85.1135 43.3173 85.2306 44.1688 85.4866 45.0623C85.747 45.9397 86.1426 46.8409 86.6733 47.7658C87.42 49.0668 88.225 50.1046 89.0883 50.8792C89.9619 51.648 90.9177 52.1128 91.9558 52.2737C92.9939 52.4346 94.0364 52.2146 95.0833 51.6138ZM99.7668 48.1559C99.7021 49.3145 99.3552 50.4053 98.7263 51.4283C98.0973 52.4513 97.2188 53.2865 96.0906 53.934C93.885 55.1997 91.708 55.4087 89.5595 54.5609C87.4053 53.7029 85.5523 51.9221 84.0008 49.2185C82.5192 46.6368 81.9587 44.1887 82.3193 41.874C82.674 39.5491 83.9186 37.7742 86.0531 36.5493C87.1609 35.9135 88.3427 35.5596 89.5984 35.4875C90.8585 35.3994 91.9658 35.622 92.9203 36.1551L92.0433 34.733L87.8174 27.3692L90.2455 25.7731L103.658 49.1451L101.493 50.3875L99.7668 48.1559Z" fill="#E04015"/>
<path d="M130.374 26.471L135.059 12.545L138.3 11.9002L132.35 29.0171L134.374 39.1889L131.357 39.7891L129.347 29.6863L117.681 16.0022L120.905 15.3608L130.374 26.471Z" fill="#E04015"/>
<path d="M152.063 27.4735C152.027 29.7584 152.501 31.6002 153.487 32.999C154.484 34.3862 155.955 35.0955 157.9 35.1266C159.822 35.1574 161.28 34.4952 162.275 33.1399C163.281 31.7847 163.803 29.9471 163.84 27.6271C163.877 25.272 163.421 23.4128 162.47 22.0498C161.531 20.6752 160.071 19.972 158.091 19.9402C156.169 19.9094 154.694 20.5773 153.664 21.9438C152.634 23.3102 152.101 25.1535 152.063 27.4735ZM166.881 27.6583C166.833 30.6462 165.997 33.0589 164.374 34.8964C162.75 36.7222 160.533 37.6125 157.721 37.5674C155.014 37.524 152.873 36.5521 151.298 34.6516C149.734 32.7513 148.976 30.3306 149.023 27.3896C149.071 24.39 149.913 21.9774 151.548 20.1518C153.183 18.3262 155.4 17.4359 158.201 17.4807C160.954 17.5249 163.101 18.4911 164.642 20.3793C166.182 22.2558 166.928 24.6821 166.881 27.6583Z" fill="#E04015"/>
<path d="M176.362 32.0602L179.222 19.5329L182.101 20.1901L179.234 32.7517C179.046 33.5743 179.001 34.2973 179.099 34.9207C179.209 35.5467 179.444 36.0692 179.805 36.4882C180.18 36.8984 180.626 37.2346 181.143 37.4969C181.672 37.7618 182.296 37.9764 183.016 38.1407C184.501 38.4797 185.729 38.4175 186.7 37.9541C187.683 37.4933 188.353 36.4802 188.71 34.915L191.578 22.3534L194.457 23.0106L191.597 35.538C191.378 36.4977 191.044 37.3289 190.595 38.0318C190.146 38.7347 189.629 39.2897 189.043 39.6969C188.472 40.0953 187.822 40.3858 187.095 40.5685C186.369 40.7511 185.623 40.8333 184.857 40.8149C184.104 40.7991 183.31 40.696 182.476 40.5056C181.653 40.3179 180.893 40.0663 180.196 39.7508C179.499 39.4354 178.857 39.0364 178.27 38.5538C177.697 38.0624 177.228 37.5106 176.863 36.8984C176.511 36.2773 176.286 35.5528 176.187 34.7247C176.087 33.8966 176.146 33.0085 176.362 32.0602Z" fill="#E04015"/>
<path d="M214.289 30.3128C214.775 30.5186 215.203 30.7384 215.575 30.9723L214.422 33.4237C213.962 33.127 213.549 32.901 213.182 32.7456C211.671 32.1055 210.217 32.1131 208.82 32.7682C207.437 33.4171 206.417 34.5184 205.759 36.0722L201.535 46.0424L198.832 44.8972C203.438 33.9945 205.94 28.0738 206.338 27.135L208.588 28.0882L207.496 31.3865C208.536 30.6436 209.661 30.1658 210.871 29.953C212.082 29.7403 213.221 29.8602 214.289 30.3128Z" fill="#E04015"/>
<path d="M229.215 56.2931C230.432 59.0555 232.226 61.4301 234.598 63.4168C237.517 65.8626 240.091 65.756 242.319 63.097C243.041 62.2346 243.391 61.3427 243.367 60.4214C243.361 59.4986 242.875 58.3728 241.909 57.0439L238.783 52.728C236.395 49.4284 236.236 46.5434 238.305 44.073C239.893 42.1776 241.722 41.3173 243.792 41.4922C245.87 41.6582 248.059 42.7044 250.358 44.6309C251.562 45.6393 252.58 46.714 253.413 47.855C254.246 48.996 254.833 50.0838 255.174 51.1185L252.908 52.454C252.585 51.6175 252.034 50.6512 251.255 49.5554C250.485 48.4671 249.593 47.4978 248.577 46.6474C245.326 43.9232 242.755 43.6884 240.866 45.9432C240.227 46.7068 239.958 47.5291 240.061 48.4101C240.18 49.2897 240.637 50.2684 241.431 51.3462L244.449 55.4345C245.743 57.1754 246.45 58.8224 246.57 60.3757C246.698 61.92 246.108 63.4736 244.798 65.0367C243.097 67.0669 241.19 68.0755 239.076 68.0625C236.978 68.0481 234.861 67.1453 232.723 65.3543C231.124 64.0148 229.835 62.6603 228.858 61.2908C227.896 59.92 227.24 58.7052 226.889 57.6464L229.215 56.2931Z" fill="#E04015"/>
<path d="M249.195 82.1074C247.982 80.647 247.477 79.3145 247.68 78.11C247.883 76.9055 248.763 75.6263 250.319 74.2724L259.23 66.8709L257.4 64.6668L258.966 63.526L260.896 65.4647L264.93 63.4163L266.22 64.8588L262.772 67.7228L266.197 71.8471L264.52 73.2398L261.095 69.1155L252.589 76.1801C251.463 77.1161 250.812 77.9463 250.636 78.6707C250.461 79.3951 250.718 80.172 251.407 81.0014C251.654 81.2988 252.261 81.8835 253.229 82.7553L251.523 84.3325C250.443 83.417 249.667 82.6753 249.195 82.1074Z" fill="#E04015"/>
<path d="M277.131 88.081C277.405 88.532 277.624 88.9611 277.788 89.3684L275.418 90.6812C275.219 90.1716 275.016 89.7464 274.81 89.4057C273.96 88.0026 272.776 87.1577 271.259 86.871C269.759 86.5882 268.287 86.8841 266.844 87.7587L257.584 93.3707L256.062 90.8602C266.178 84.7158 271.672 81.3795 272.544 80.851L273.811 82.9406L270.995 84.9759C272.273 84.9823 273.465 85.2534 274.571 85.7891C275.677 86.3249 276.53 87.0888 277.131 88.081Z" fill="#E04015"/>
<path d="M283.559 111.176C284.213 110.007 284.27 108.722 283.729 107.323C283.189 105.924 282.251 104.974 280.914 104.472C279.588 103.967 278.037 103.969 276.262 104.478L279.928 113.973C281.71 113.285 282.92 112.353 283.559 111.176ZM267.458 114.228C266.449 111.615 266.485 109.234 267.564 107.083C268.647 104.944 270.632 103.317 273.518 102.203C276.305 101.126 278.844 100.982 281.132 101.769C283.432 102.551 285.056 104.123 286.005 106.482C286.866 108.712 286.783 110.773 285.755 112.665C284.742 114.564 282.962 116.005 280.414 116.988C280.283 117.039 280.041 117.127 279.687 117.251C279.337 117.386 279.085 117.483 278.932 117.542L274.164 105.194C272.133 106.016 270.739 107.157 269.984 108.617C269.244 110.084 269.207 111.681 269.874 113.408C270.609 115.31 271.848 117.024 273.593 118.549L271.543 119.83C269.723 118.435 268.362 116.567 267.458 114.228Z" fill="#E04015"/>
<path d="M272.693 129.054L291.717 125.904L292.119 128.331L289.457 129.146C290.518 129.743 291.425 130.555 292.177 131.583C292.942 132.62 293.433 133.792 293.65 135.098C294.014 137.295 293.664 139.022 292.601 140.278C291.55 141.533 289.747 142.373 287.192 142.796L275.295 144.766L274.816 141.87C282.446 140.606 286.532 139.923 287.073 139.822C288.684 139.508 289.815 138.982 290.465 138.245C291.117 137.519 291.325 136.445 291.09 135.023C290.843 133.532 290.278 132.348 289.397 131.473C288.515 130.597 287.477 130.104 286.283 129.993C285.489 130.005 284.59 130.095 283.584 130.262L273.179 131.985L272.693 129.054Z" fill="#E04015"/>
<path d="M278.017 161.311C277.973 162.306 278.11 163.186 278.428 163.951C278.746 164.716 279.206 165.323 279.808 165.772C280.409 166.221 281.086 166.562 281.839 166.794C282.59 167.039 283.417 167.181 284.318 167.221L285.741 167.284C286.677 167.325 287.542 167.258 288.336 167.082C289.142 166.907 289.864 166.61 290.505 166.193C291.156 165.788 291.674 165.224 292.057 164.502C292.441 163.792 292.654 162.951 292.697 161.979C292.733 161.171 292.613 160.427 292.339 159.746C292.063 159.077 291.683 158.515 291.199 158.059C290.726 157.616 290.163 157.228 289.509 156.894C288.866 156.572 288.208 156.332 287.535 156.173C286.862 156.014 286.18 155.919 285.489 155.889C284.81 155.858 284.134 155.899 283.46 156.01C282.787 156.121 282.127 156.314 281.481 156.591C280.836 156.867 280.263 157.211 279.764 157.623C279.276 158.036 278.872 158.557 278.551 159.188C278.229 159.831 278.051 160.538 278.017 161.311ZM266.89 156.296L269.554 156.15L269.395 159.733C269.351 160.728 269.383 161.597 269.49 162.341C269.598 163.085 269.805 163.71 270.111 164.216C270.405 164.722 270.745 165.136 271.129 165.458C271.502 165.779 272.001 166.03 272.627 166.21C273.24 166.402 273.856 166.534 274.474 166.609C275.08 166.694 275.828 166.757 276.718 166.796L278.422 166.872C277.446 166.125 276.703 165.276 276.194 164.327C275.697 163.378 275.479 162.19 275.543 160.762C275.592 159.661 275.824 158.651 276.24 157.731C276.667 156.823 277.211 156.061 277.872 155.445C278.532 154.841 279.288 154.329 280.14 153.91C280.991 153.502 281.866 153.212 282.765 153.041C283.663 152.881 284.563 152.821 285.465 152.861C286.87 152.923 288.162 153.151 289.341 153.543C290.519 153.947 291.562 154.51 292.468 155.23C293.375 155.951 294.067 156.873 294.545 157.997C295.034 159.133 295.247 160.415 295.184 161.843C295.128 163.107 294.833 164.197 294.3 165.112C293.778 166.039 292.997 166.855 291.957 167.559L294.521 167.673L294.394 170.535L276.517 169.743C275.698 169.707 274.985 169.652 274.378 169.578C273.759 169.516 273.079 169.386 272.337 169.189C271.594 169.003 270.959 168.764 270.433 168.471C269.906 168.178 269.385 167.773 268.868 167.258C268.339 166.753 267.925 166.154 267.628 165.461C267.318 164.778 267.08 163.935 266.913 162.931C266.746 161.926 266.691 160.798 266.746 159.545L266.89 156.296Z" fill="#E04015"/>
<path d="M271.893 184.553C272.308 182.701 273.055 181.487 274.133 180.912C275.211 180.337 276.761 180.252 278.784 180.658L290.087 183.193L290.714 180.397L292.574 180.94L292.217 183.653L296.303 185.596L295.949 187.498L291.575 186.517L290.402 191.748L288.275 191.271L289.448 186.04L278.66 183.62C277.23 183.3 276.175 183.291 275.495 183.595C274.814 183.899 274.356 184.577 274.12 185.629C274.035 186.006 273.943 186.844 273.844 188.143L271.553 187.755C271.618 186.341 271.732 185.273 271.893 184.553Z" fill="#E04015"/>
<path d="M264.404 207.169L275.17 211.632C276.956 212.372 278.374 212.624 279.424 212.386C280.469 212.16 281.286 211.338 281.873 209.92C282.439 208.556 282.576 207.261 282.284 206.037C281.988 204.823 281.357 203.851 280.391 203.121C279.619 202.687 278.736 202.264 277.74 201.851L268.24 197.913L269.364 195.201L294.095 205.452L293.134 208.232L285.891 205.23C285.274 204.974 284.52 204.636 283.629 204.216C284.88 206.523 284.982 208.938 283.937 211.46C282.29 215.433 279.134 216.453 274.468 214.519L263.28 209.881L264.404 207.169Z" fill="#E04015"/>
<path d="M249.959 230.458L251.986 228.097L271.937 245.23L266.417 251.657C265.577 252.635 264.715 253.432 263.831 254.048C262.947 254.663 262.033 255.099 261.088 255.353C260.143 255.608 259.175 255.602 258.182 255.337C257.19 255.072 256.227 254.538 255.293 253.737C254.52 253.073 253.888 252.406 253.396 251.737C252.914 251.075 252.555 250.342 252.319 249.538C252.084 248.733 252.028 247.898 252.154 247.032C252.288 246.174 252.631 245.217 253.182 244.162C253.735 243.122 254.507 242.025 255.5 240.869C256.286 239.953 257.275 238.918 258.467 237.764L249.959 230.458ZM257.345 242.848C256.597 243.719 256.04 244.539 255.675 245.306C255.309 246.073 255.11 246.729 255.076 247.271C255.035 247.823 255.134 248.364 255.374 248.894C255.606 249.433 255.868 249.866 256.159 250.193C256.458 250.528 256.844 250.897 257.315 251.302C258.444 252.272 259.603 252.603 260.793 252.297C261.976 251.999 263.128 251.197 264.25 249.89L267.789 245.769L260.361 239.39C258.87 241.091 257.865 242.244 257.345 242.848Z" fill="#E04015"/>
<path d="M230.606 249.31C232.048 248.112 233.394 247.65 234.642 247.924C235.88 248.206 237.297 249.306 238.892 251.227L251.894 266.888L249.762 268.887L237.388 253.983C236.879 253.37 236.466 252.883 236.15 252.521C235.825 252.166 235.486 251.831 235.132 251.515C234.786 251.208 234.493 251.002 234.254 250.897C234.014 250.791 233.744 250.733 233.446 250.722C233.155 250.72 232.87 250.789 232.59 250.93C232.309 251.087 231.993 251.311 231.642 251.603C231.353 251.843 230.83 252.368 230.072 253.18L228.457 251.483C229.258 250.558 229.975 249.834 230.606 249.31Z" fill="#E04015"/>
<path d="M219.133 260.136C217.929 260.84 217.063 261.786 216.537 262.976C216.006 264.182 215.937 265.423 216.33 266.7L217.97 269.508C218.021 269.478 218.315 269.273 218.852 268.891C219.379 268.515 219.725 268.272 219.891 268.162C221.975 266.687 223.298 265.432 223.861 264.398C224.414 263.369 224.35 262.273 223.671 261.109C223.151 260.219 222.495 259.7 221.702 259.552C220.91 259.404 220.054 259.599 219.133 260.136ZM212.63 261.654C213.16 262.213 213.715 262.826 214.294 263.492C214.677 262.033 215.169 260.89 215.772 260.063C216.375 259.237 217.223 258.504 218.316 257.866C219.874 256.955 221.365 256.627 222.789 256.881C224.209 257.151 225.365 258.05 226.257 259.578C227.25 261.278 227.344 262.913 226.537 264.484C225.721 266.06 224.157 267.658 221.847 269.279C221.531 269.505 221.053 269.838 220.415 270.278C219.773 270.735 219.293 271.076 218.977 271.301L219.837 272.774C220.522 273.948 221.304 274.658 222.181 274.906C223.059 275.153 224.084 274.934 225.258 274.249C226.898 273.291 228.316 271.92 229.512 270.135C229.634 270.227 229.969 270.5 230.519 270.952C231.074 271.415 231.363 271.654 231.385 271.668C230.888 272.514 230.205 273.354 229.335 274.188C228.461 275.038 227.497 275.771 226.445 276.385C224.371 277.597 222.612 278.013 221.169 277.634C219.722 277.272 218.364 276.002 217.093 273.827L210.657 262.807L212.63 261.654Z" fill="#E04015"/>
<path d="M193.979 269.171C196.656 268.235 199.056 268.371 201.179 269.578C203.29 270.789 204.837 272.799 205.819 275.609C206.798 278.445 206.832 281.009 205.92 283.302C205.001 285.609 203.208 287.229 200.542 288.16C199.602 288.489 198.654 288.69 197.699 288.763C196.733 288.84 195.93 288.78 195.289 288.581L195.299 286.157C196.836 286.402 198.324 286.273 199.763 285.77C201.522 285.155 202.691 284.027 203.271 282.384C203.841 280.745 203.737 278.813 202.959 276.59C202.202 274.422 201.097 272.877 199.646 271.957C198.187 271.052 196.562 270.912 194.77 271.539C193.343 272.037 192.018 272.935 190.795 274.231L189.675 272.146C190.575 270.851 192.01 269.859 193.979 269.171Z" fill="#E04015"/>
<path d="M172.107 290.52C173.102 291.418 174.341 291.759 175.826 291.544C177.31 291.329 178.446 290.626 179.232 289.434C180.02 288.254 180.364 286.742 180.262 284.898L170.19 286.357C170.464 288.248 171.103 289.635 172.107 290.52ZM172.718 274.144C175.49 273.742 177.804 274.307 179.66 275.838C181.504 277.37 182.648 279.668 183.092 282.729C183.52 285.687 183.096 288.193 181.819 290.249C180.544 292.317 178.65 293.55 176.139 293.95C173.773 294.293 171.782 293.752 170.167 292.328C168.541 290.918 167.533 288.862 167.141 286.159C167.121 286.02 167.09 285.764 167.048 285.391C166.994 285.02 166.956 284.754 166.932 284.591L180.032 282.693C179.683 280.53 178.881 278.917 177.626 277.855C176.361 276.807 174.812 276.416 172.979 276.681C170.962 276.974 169.015 277.8 167.14 279.161L166.347 276.878C168.113 275.415 170.237 274.503 172.718 274.144Z" fill="#E04015"/>
</svg>
